<svg width="16" height="16" viewBox="0 0 16 16" fill="none" xmlns="http://www.w3.org/2000/svg">
<path d="M5.33333 10.9998C5.33333 11.368 5.03486 11.6665 4.66667 11.6665C4.29848 11.6665 4 11.368 4 10.9998C4 10.6316 4.29848 10.3332 4.66667 10.3332C5.03486 10.3332 5.33333 10.6316 5.33333 10.9998Z" fill="#90A2B9"/>
<path d="M5.33333 8.33317C5.33333 8.70136 5.03486 8.99984 4.66667 8.99984C4.29848 8.99984 4 8.70136 4 8.33317C4 7.96498 4.29848 7.6665 4.66667 7.6665C5.03486 7.6665 5.33333 7.96498 5.33333 8.33317Z" fill="#90A2B9"/>
<path d="M8.66683 10.9998C8.66683 11.368 8.36835 11.6665 8.00016 11.6665C7.63197 11.6665 7.3335 11.368 7.3335 10.9998C7.3335 10.6316 7.63197 10.3332 8.00016 10.3332C8.36835 10.3332 8.66683 10.6316 8.66683 10.9998Z" fill="#90A2B9"/>
<path d="M8.66683 8.33317C8.66683 8.70136 8.36835 8.99984 8.00016 8.99984C7.63197 8.99984 7.3335 8.70136 7.3335 8.33317C7.3335 7.96498 7.63197 7.6665 8.00016 7.6665C8.36835 7.6665 8.66683 7.96498 8.66683 8.33317Z" fill="#90A2B9"/>
<path d="M12.0003 10.9998C12.0003 11.368 11.7018 11.6665 11.3337 11.6665C10.9655 11.6665 10.667 11.368 10.667 10.9998C10.667 10.6316 10.9655 10.3332 11.3337 10.3332C11.7018 10.3332 12.0003 10.6316 12.0003 10.9998Z" fill="#90A2B9"/>
<path d="M12.0003 8.33317C12.0003 8.70136 11.7018 8.99984 11.3337 8.99984C10.9655 8.99984 10.667 8.70136 10.667 8.33317C10.667 7.96498 10.9655 7.6665 11.3337 7.6665C11.7018 7.6665 12.0003 7.96498 12.0003 8.33317Z" fill="#90A2B9"/>
<path d="M1.66699 5.6665H14.3337" stroke="#90A2B9" stroke-linecap="round"/>
<path d="M11.3335 2.33325V1.33325" stroke="#90A2B9" stroke-linecap="round"/>
<path d="M4.66699 2.33325V1.33325" stroke="#90A2B9" stroke-linecap="round"/>
<path d="M1.3335 7.66659C1.3335 5.15243 1.3335 3.89535 2.11454 3.1143C2.89559 2.33325 4.15267 2.33325 6.66683 2.33325H9.3335C11.8477 2.33325 13.1047 2.33325 13.8858 3.1143C14.6668 3.89535 14.6668 5.15243 14.6668 7.66659V8.99992C14.6668 11.5141 14.6668 12.7712 13.8858 13.5522C13.1047 14.3333 11.8477 14.3333 9.3335 14.3333H6.66683C4.15267 14.3333 2.89559 14.3333 2.11454 13.5522C1.3335 12.7712 1.3335 11.5141 1.3335 8.99992V7.66659Z" stroke="#90A2B9"/>
</svg>
