<svg width="20" height="20" viewBox="0 0 20 20" fill="none" xmlns="http://www.w3.org/2000/svg">
<path opacity="0.4" d="M8.32484 14.9834C12.0022 14.9834 14.9832 12.0024 14.9832 8.32508C14.9832 4.64778 12.0022 1.66675 8.32484 1.66675C4.64754 1.66675 1.6665 4.64778 1.6665 8.32508C1.6665 12.0024 4.64754 14.9834 8.32484 14.9834Z" fill="#1BE088"/>
<path d="M18.3084 13.3251C18.3084 16.0751 16.0751 18.3084 13.3251 18.3084C11.6251 18.3084 10.1334 17.4584 9.2334 16.1667C12.8667 15.7584 15.7584 12.8667 16.1667 9.2334C17.4584 10.1334 18.3084 11.6251 18.3084 13.3251Z" fill="#1BE088"/>
<path d="M9.5415 8.0918L7.5415 7.3918C7.3415 7.32513 7.29984 7.30846 7.29984 7.0168C7.29984 6.80013 7.44984 6.62513 7.6415 6.62513H8.8915C9.15817 6.62513 9.37484 6.8668 9.37484 7.1668C9.37484 7.50846 9.65817 7.7918 9.99984 7.7918C10.3415 7.7918 10.6248 7.50846 10.6248 7.1668C10.6248 6.20846 9.88317 5.42513 8.95817 5.38346V5.3418C8.95817 5.00013 8.67484 4.7168 8.33317 4.7168C7.9915 4.7168 7.70817 4.9918 7.70817 5.3418V5.38346H7.63317C6.75817 5.38346 6.0415 6.1168 6.0415 7.02513C6.0415 7.8168 6.3915 8.32513 7.1165 8.57516L9.12484 9.27516C9.32484 9.34183 9.3665 9.3585 9.3665 9.65016C9.3665 9.86683 9.2165 10.0418 9.02484 10.0418H7.77484C7.50817 10.0418 7.2915 9.80016 7.2915 9.50016C7.2915 9.1585 7.00817 8.87516 6.6665 8.87516C6.32484 8.87516 6.0415 9.1585 6.0415 9.50016C6.0415 10.4585 6.78317 11.2418 7.70817 11.2835V11.3335C7.70817 11.6752 7.9915 11.9585 8.33317 11.9585C8.67484 11.9585 8.95817 11.6752 8.95817 11.3335V11.2918H9.03317C9.90817 11.2918 10.6248 10.5585 10.6248 9.65016C10.6248 8.8585 10.2665 8.35016 9.5415 8.0918Z" fill="#1BE088"/>
</svg>
