<svg width="20" height="20" viewBox="0 0 20 20" fill="none" xmlns="http://www.w3.org/2000/svg">
<path opacity="0.4" d="M8.32508 14.9834C12.0024 14.9834 14.9834 12.0024 14.9834 8.32508C14.9834 4.64778 12.0024 1.66675 8.32508 1.66675C4.64778 1.66675 1.66675 4.64778 1.66675 8.32508C1.66675 12.0024 4.64778 14.9834 8.32508 14.9834Z" fill="#1BE088"/>
<path d="M18.3084 13.3251C18.3084 16.0751 16.0751 18.3084 13.3251 18.3084C11.6251 18.3084 10.1334 17.4584 9.2334 16.1667C12.8667 15.7584 15.7584 12.8667 16.1667 9.2334C17.4584 10.1334 18.3084 11.6251 18.3084 13.3251Z" fill="#1BE088"/>
<path d="M9.54175 8.0918L7.54175 7.3918C7.34175 7.32513 7.30008 7.30846 7.30008 7.0168C7.30008 6.80013 7.45008 6.62513 7.64175 6.62513H8.89175C9.15841 6.62513 9.37508 6.8668 9.37508 7.1668C9.37508 7.50846 9.65841 7.7918 10.0001 7.7918C10.3417 7.7918 10.6251 7.50846 10.6251 7.1668C10.6251 6.20846 9.88341 5.42513 8.95841 5.38346V5.3418C8.95841 5.00013 8.67508 4.7168 8.33341 4.7168C7.99175 4.7168 7.70841 4.9918 7.70841 5.3418V5.38346H7.63341C6.75841 5.38346 6.04175 6.1168 6.04175 7.02513C6.04175 7.8168 6.39175 8.32513 7.11675 8.57516L9.12508 9.27516C9.32508 9.34183 9.36675 9.3585 9.36675 9.65016C9.36675 9.86683 9.21675 10.0418 9.02508 10.0418H7.77508C7.50841 10.0418 7.29175 9.80016 7.29175 9.50016C7.29175 9.1585 7.00841 8.87516 6.66675 8.87516C6.32508 8.87516 6.04175 9.1585 6.04175 9.50016C6.04175 10.4585 6.78341 11.2418 7.70841 11.2835V11.3335C7.70841 11.6752 7.99175 11.9585 8.33341 11.9585C8.67508 11.9585 8.95841 11.6752 8.95841 11.3335V11.2918H9.03341C9.90841 11.2918 10.6251 10.5585 10.6251 9.65016C10.6251 8.8585 10.2667 8.35016 9.54175 8.0918Z" fill="#1BE088"/>
</svg>
