<svg width="20" height="20" viewBox="0 0 20 20" fill="none" xmlns="http://www.w3.org/2000/svg">
<path d="M18.3333 4.16675C18.3333 5.54746 17.214 6.66675 15.8333 6.66675C14.4525 6.66675 13.3333 5.54746 13.3333 4.16675C13.3333 2.78604 14.4525 1.66675 15.8333 1.66675C17.214 1.66675 18.3333 2.78604 18.3333 4.16675Z" fill="#1BE088"/>
<path opacity="0.5" d="M12.6957 2.11238C11.8502 1.8235 10.9434 1.66675 10.0001 1.66675C5.39771 1.66675 1.66675 5.39771 1.66675 10.0001C1.66675 11.3332 1.97976 12.5931 2.5363 13.7105C2.6842 14.0074 2.73342 14.3468 2.64768 14.6672L2.15134 16.5223C1.93587 17.3276 2.67259 18.0642 3.47787 17.8488L5.3329 17.3525C5.65336 17.2667 5.99276 17.316 6.28969 17.4638C7.40705 18.0204 8.667 18.3334 10.0001 18.3334C14.6024 18.3334 18.3334 14.6024 18.3334 10.0001C18.3334 9.05675 18.1767 8.14997 17.8877 7.30446C17.2977 7.69159 16.5918 7.91675 15.8334 7.91675C13.7623 7.91675 12.0834 6.23781 12.0834 4.16675C12.0834 3.40831 12.3086 2.70245 12.6957 2.11238Z" fill="#1BE088"/>
</svg>