<svg width="32" height="32" viewBox="0 0 32 32" fill="none" xmlns="http://www.w3.org/2000/svg">
<rect width="32" height="32" rx="16" fill="#1BE088" fill-opacity="0.1"/>
<path d="M10 15H14" stroke="#1BE088" stroke-width="2" stroke-linecap="round" stroke-linejoin="round"/>
<path d="M12 13V17" stroke="#1BE088" stroke-width="2" stroke-linecap="round" stroke-linejoin="round"/>
<path d="M19 16H19.01" stroke="#1BE088" stroke-width="2" stroke-linecap="round" stroke-linejoin="round"/>
<path d="M22 14H22.01" stroke="#1BE088" stroke-width="2" stroke-linecap="round" stroke-linejoin="round"/>
<path d="M21.32 9H10.68C9.69028 9.00023 8.73579 9.36738 8.00103 10.0305C7.26628 10.6936 6.80345 11.6055 6.702 12.59C6.696 12.642 6.692 12.691 6.685 12.742C6.604 13.416 6 18.456 6 20C6 20.7956 6.31607 21.5587 6.87868 22.1213C7.44129 22.6839 8.20435 23 9 23C10 23 10.5 22.5 11 22L12.414 20.586C12.789 20.2109 13.2976 20.0001 13.828 20H18.172C18.7024 20.0001 19.211 20.2109 19.586 20.586L21 22C21.5 22.5 22 23 23 23C23.7956 23 24.5587 22.6839 25.1213 22.1213C25.6839 21.5587 26 20.7956 26 20C26 18.455 25.396 13.416 25.315 12.742C25.308 12.692 25.304 12.642 25.298 12.591C25.1968 11.6063 24.7341 10.6941 23.9993 10.0308C23.2645 9.36754 22.3099 9.00026 21.32 9Z" stroke="#1BE088" stroke-width="2" stroke-linecap="round" stroke-linejoin="round"/>
</svg>