<svg width="20" height="20" viewBox="0 0 20 20" fill="none" xmlns="http://www.w3.org/2000/svg">
<path fill-rule="evenodd" clip-rule="evenodd" d="M17.943 9.65481L17.2917 9.13381V17.7084H18.3334C18.6786 17.7084 18.9584 17.9882 18.9584 18.3334C18.9584 18.6786 18.6786 18.9584 18.3334 18.9584H1.66677C1.32159 18.9584 1.04177 18.6786 1.04177 18.3334C1.04177 17.9882 1.32159 17.7084 1.66677 17.7084H2.70844V9.13381L2.0572 9.65481C1.78766 9.87048 1.39436 9.82673 1.17873 9.55723C0.963097 9.28765 1.0068 8.89431 1.27634 8.67873L8.04793 3.26145C9.18925 2.3484 10.811 2.3484 11.9522 3.26145L18.7238 8.67873C18.9934 8.89431 19.0371 9.28765 18.8215 9.55723C18.6058 9.82673 18.2126 9.87048 17.943 9.65481ZM10.0001 5.6251C8.73441 5.6251 7.70844 6.65111 7.70844 7.91676C7.70844 9.1824 8.73441 10.2084 10.0001 10.2084C11.2657 10.2084 12.2917 9.1824 12.2917 7.91676C12.2917 6.65111 11.2657 5.6251 10.0001 5.6251ZM11.455 11.0931C11.0727 11.0417 10.5953 11.0417 10.0412 11.0417H9.959C9.40491 11.0417 8.9275 11.0417 8.54525 11.0931C8.13554 11.1481 7.74281 11.2724 7.42428 11.591C7.10574 11.9095 6.98152 12.3022 6.92644 12.7119C6.87505 13.0941 6.87507 13.5716 6.8751 14.1256V17.7084H8.1251H11.8751H13.1251V14.1256V14.0226C13.1249 13.5122 13.1219 13.0703 13.0737 12.7119C13.0187 12.3022 12.8945 11.9095 12.5759 11.591C12.2574 11.2724 11.8647 11.1481 11.455 11.0931Z" fill="#1BE088"/>
<g opacity="0.5">
<path fill-rule="evenodd" clip-rule="evenodd" d="M8.95825 7.91667C8.95825 7.34137 9.42459 6.875 9.99992 6.875C10.5753 6.875 11.0416 7.34137 11.0416 7.91667C11.0416 8.492 10.5753 8.95833 9.99992 8.95833C9.42459 8.95833 8.95825 8.492 8.95825 7.91667Z" fill="#1BE088"/>
<path fill-rule="evenodd" clip-rule="evenodd" d="M8.95825 7.91667C8.95825 7.34137 9.42459 6.875 9.99992 6.875C10.5753 6.875 11.0416 7.34137 11.0416 7.91667C11.0416 8.492 10.5753 8.95833 9.99992 8.95833C9.42459 8.95833 8.95825 8.492 8.95825 7.91667Z" fill="#1BE088"/>
</g>
<path opacity="0.5" d="M10.0412 11.0417C10.5952 11.0417 11.0726 11.0417 11.4548 11.0931C11.8646 11.1482 12.2573 11.2724 12.5758 11.5909C12.8943 11.9095 13.0186 12.3022 13.0737 12.7119C13.1218 13.0702 13.1248 13.5122 13.125 14.0226V17.7084H6.875V14.1256C6.87498 13.5716 6.87494 13.0942 6.92634 12.7119C6.98143 12.3022 7.10564 11.9095 7.42418 11.5909C7.74272 11.2724 8.13543 11.1482 8.54517 11.0931C8.92742 11.0417 9.40483 11.0417 9.95883 11.0417H10.0412Z" fill="#1BE088"/>
<path opacity="0.5" d="M13.3334 2.5H15.4167C15.6468 2.5 15.8334 2.68655 15.8334 2.91667V6.36629L12.9167 4.03296V2.91667C12.9167 2.68655 13.1033 2.5 13.3334 2.5Z" fill="#1BE088"/>
</svg>
