<svg width="16" height="16" viewBox="0 0 16 16" fill="none" xmlns="http://www.w3.org/2000/svg">
<path d="M8.66699 13.5424L9.0226 13.8939C9.21512 13.6991 9.21512 13.3857 9.0226 13.191L8.66699 13.5424ZM7.91149 12.0668C7.71737 11.8704 7.4008 11.8686 7.2044 12.0627C7.008 12.2568 7.00615 12.5734 7.20027 12.7698L7.55588 12.4183L7.91149 12.0668ZM7.20027 14.3151C7.00615 14.5115 7.008 14.8281 7.2044 15.0222C7.4008 15.2163 7.71737 15.2145 7.91149 15.0181L7.55588 14.6666L7.20027 14.3151ZM4.92958 3.54513C5.16457 3.40011 5.23751 3.09204 5.09249 2.85704C4.94747 2.62205 4.6394 2.54911 4.40441 2.69413L4.66699 3.11963L4.92958 3.54513ZM2.00033 7.92166L1.50033 7.92166C1.50033 11.2966 4.206 14.0424 7.55588 14.0424L7.55588 13.5424L7.55588 13.0424C4.76926 13.0424 2.50033 10.7553 2.50033 7.92166L2.00033 7.92166ZM7.55588 13.5424L7.55588 14.0424L8.66699 14.0424L8.66699 13.5424L8.66699 13.0424L7.55588 13.0424L7.55588 13.5424ZM8.66699 13.5424L9.0226 13.191L7.91149 12.0668L7.55588 12.4183L7.20027 12.7698L8.31138 13.8939L8.66699 13.5424ZM8.66699 13.5424L8.31138 13.191L7.20027 14.3151L7.55588 14.6666L7.91149 15.0181L9.0226 13.8939L8.66699 13.5424ZM4.66699 3.11963L4.40441 2.69413C2.66234 3.7692 1.50033 5.70919 1.50033 7.92166L2.00033 7.92166L2.50033 7.92166C2.50033 6.06666 3.47346 4.44373 4.92958 3.54513L4.66699 3.11963Z" fill="#90A2B9"/>
<path d="M8.44445 2.45313L8.44445 1.95313L8.44444 1.95313L8.44445 2.45313ZM7.33333 2.45313L6.97839 2.10096C6.78498 2.2959 6.78498 2.61035 6.97839 2.80529L7.33333 2.45313ZM8.0895 3.92516C8.284 4.12119 8.60058 4.12243 8.79661 3.92794C8.99263 3.73345 8.99388 3.41687 8.79938 3.22084L8.44444 3.573L8.0895 3.92516ZM8.79938 1.68541C8.99388 1.48939 8.99263 1.17281 8.79661 0.978312C8.60058 0.783819 8.284 0.785062 8.0895 0.98109L8.44444 1.33325L8.79938 1.68541ZM11.0715 12.4103C10.8362 12.5549 10.7628 12.8629 10.9074 13.0981C11.052 13.3333 11.36 13.4068 11.5952 13.2622L11.3333 12.8362L11.0715 12.4103ZM14 8.0525L14.5 8.0525C14.5 4.68762 11.7925 1.95313 8.44445 1.95313L8.44445 2.45313L8.44445 2.95313C11.2329 2.95313 13.5 5.23248 13.5 8.0525L14 8.0525ZM8.44445 2.45313L8.44444 1.95313L7.33333 1.95313L7.33333 2.45313L7.33333 2.95313L8.44445 2.95313L8.44445 2.45313ZM7.33333 2.45313L6.97839 2.80529L8.0895 3.92516L8.44444 3.573L8.79938 3.22084L7.68827 2.10096L7.33333 2.45313ZM7.33333 2.45313L7.68827 2.80529L8.79938 1.68541L8.44444 1.33325L8.0895 0.98109L6.97839 2.10096L7.33333 2.45313ZM11.3333 12.8362L11.5952 13.2622C13.3372 12.1913 14.5 10.2581 14.5 8.0525L14 8.0525L13.5 8.0525C13.5 9.89885 12.5277 11.515 11.0715 12.4103L11.3333 12.8362Z" fill="#90A2B9"/>
</svg>
