<svg width="150" height="150" viewBox="0 0 150 150" fill="none" xmlns="http://www.w3.org/2000/svg">
<path d="M75 0C33.5785 0 0 33.5785 0 75C0 116.422 33.5785 150 75 150C116.422 150 150 116.422 150 75C150 33.5785 116.422 0 75 0Z" fill="#F0A63E"/>
<path fill-rule="evenodd" clip-rule="evenodd" d="M75 0C33.5785 0 0 33.5785 0 75C0 116.422 33.5785 150 75 150C116.422 150 150 116.422 150 75C150 33.5785 116.422 0 75 0Z" fill="#F4C74B"/>
<path d="M136.001 73.4198C135.895 69.2327 135.367 65.15 134.458 61.2133C134.344 60.7214 134.225 60.2317 134.1 59.7442C133.576 57.7067 132.946 55.7114 132.223 53.7624C131.388 51.5141 130.428 49.3273 129.345 47.213C129.12 46.7745 128.89 46.339 128.656 45.9067C126.135 41.2675 123.028 36.9943 119.439 33.1798C116.302 29.8478 112.796 26.8666 108.984 24.3054C107.401 23.2428 105.768 22.2501 104.084 21.3351C103.652 21.1007 103.216 20.871 102.778 20.6461C94.4448 16.378 85.0011 13.9702 74.9957 13.9702C74.9918 13.9702 74.9881 13.9702 74.9847 13.9702C74.6567 13.9702 74.3303 13.9778 74.0039 13.9829C73.5896 13.9896 73.1763 14.0003 72.7642 14.0149C72.6984 14.0172 72.6329 14.0197 72.5677 14.0225C72.204 14.036 71.8413 14.0529 71.4798 14.0731C71.3078 14.0832 71.1363 14.0942 70.9654 14.106C70.6921 14.1237 70.4189 14.1406 70.1473 14.1617C69.6824 14.1976 69.2188 14.2387 68.7567 14.2848C66.7048 14.4931 64.6833 14.8034 62.6973 15.2099C60.7112 15.6164 58.7597 16.119 56.8487 16.7136C55.8935 17.011 54.9484 17.3309 54.0134 17.6733C51.6765 18.5285 49.407 19.5228 47.2144 20.6461C46.7758 20.871 46.3404 21.1007 45.908 21.3351C45.0428 21.8051 44.1907 22.2951 43.3519 22.8051C42.2656 23.4654 41.2039 24.162 40.1632 24.8864C39.5973 25.2803 39.0356 25.6808 38.4833 26.0932C31.4346 31.365 25.5633 38.1252 21.3364 45.9067C21.1014 46.339 20.8715 46.7745 20.6466 47.213C19.8808 48.7083 19.1792 50.2406 18.5366 51.8042C18.3083 52.3597 18.0879 52.9191 17.8754 53.4824C17.1071 55.5208 16.4417 57.6089 15.8918 59.7442C15.7665 60.2317 15.647 60.7214 15.5334 61.2133C14.6243 65.15 14.0964 69.2327 13.9909 73.4198C13.9775 73.9433 13.9707 74.4684 13.9707 74.9952C13.9713 75.4377 13.9769 75.8793 13.9876 76.3201C13.9977 76.7384 14.0115 77.1561 14.0289 77.5733C14.0306 77.5424 14.0323 77.5117 14.034 77.4814C14.2633 83.2018 15.2711 88.7214 16.9705 93.9307C17.4692 95.4611 18.0255 96.9634 18.6394 98.4376C22.8165 108.469 29.5944 117.145 38.1307 123.626C39.186 124.427 40.2672 125.194 41.3742 125.926C44.078 127.714 46.9293 129.296 49.9114 130.642C51.1485 131.201 52.4085 131.717 53.6878 132.194C59.8957 134.507 66.58 135.841 73.5553 136.002C74.0337 136.013 74.5139 136.02 74.9957 136.02C76.1713 136.02 77.3385 135.983 78.4981 135.918C109.721 134.151 134.662 108.914 135.963 77.5682C135.963 77.5699 135.963 77.5716 135.963 77.5733C135.98 77.1561 135.994 76.7384 136.004 76.3201C136.015 75.8799 136.021 75.4383 136.021 74.9952C136.021 74.4684 136.014 73.9433 136.001 73.4198Z" fill="#D88C33"/>
<path d="M71.992 18.7773L16.9219 93.919L18.0304 96.8773C22.0379 107.572 29.1017 116.852 38.3427 123.562L107.412 26.8734L89.1962 18.7773H71.992Z" fill="#EA953C"/>
<path d="M119.388 33.4097L49.9814 130.858C55.987 133.075 62.1655 134.792 68.4538 135.991L73.595 136.972L132.545 53.692L126.388 43.3611L119.388 33.4097Z" fill="#EA953C"/>
<path d="M108.988 24.3098C107.405 23.2471 105.772 22.2545 104.089 21.3395C103.656 21.1051 103.221 20.8754 102.782 20.6505C94.4492 16.3823 85.0055 13.9746 75.0001 13.9746C74.9962 13.9746 74.9925 13.9746 74.9891 13.9746C74.6611 13.9746 74.3347 13.9822 74.0083 13.9873C73.594 13.994 73.1807 14.0047 72.7686 14.0193C72.7028 14.0216 72.6371 14.0241 72.5713 14.0269C72.2081 14.0404 71.8457 14.0573 71.4842 14.0775C71.3122 14.0876 71.1407 14.0986 70.9698 14.1104C70.6965 14.1281 70.4233 14.145 70.1517 14.166C69.6868 14.202 69.2232 14.2431 68.7611 14.2892C66.7092 14.4975 64.6877 14.8078 62.7017 15.2143C60.7156 15.6208 58.7641 16.1234 56.8531 16.718C55.8979 17.0154 54.9528 17.3353 54.0178 17.6777C51.6809 18.5329 49.4114 19.5272 47.2188 20.6505C46.7802 20.8754 46.3448 21.1051 45.9124 21.3395C45.0472 21.8095 44.1951 22.2995 43.3563 22.8095C42.27 23.4698 41.2083 24.1664 40.1676 24.8908C39.6017 25.2847 39.04 25.6852 38.4876 26.0976C31.439 31.3694 25.5677 38.1296 21.3408 45.9111C21.1058 46.3434 20.8759 46.7789 20.651 47.2174C19.8852 48.7127 19.1836 50.245 18.5409 51.8086C18.3127 52.3641 18.0923 52.9235 17.8798 53.4868C17.1115 55.5252 16.4461 57.6133 15.8962 59.7486C15.7709 60.2361 15.6514 60.7258 15.5378 61.2177C14.6287 65.1544 14.1008 69.2371 13.9953 73.4242C13.9818 73.9477 13.9751 74.4728 13.9751 74.9996C13.9757 75.4421 13.9813 75.8837 13.992 76.3245C14.0021 76.7428 14.0159 77.1605 14.0333 77.5777C14.035 77.5468 14.0367 77.5161 14.0383 77.4858C15.4366 45.0222 42.1924 19.1308 75.0001 19.1308C75.0732 19.1319 75.1466 19.133 75.2202 19.1342C88.0702 19.1789 99.9832 23.1965 109.797 30.0225C113.572 32.6479 117.036 35.6873 120.123 39.0767C125.601 45.0914 129.893 52.2049 132.63 60.048C134.556 65.5711 135.712 71.4551 135.967 77.5727C135.967 77.5743 135.967 77.576 135.967 77.5777C135.984 77.1605 135.998 76.7428 136.008 76.3245C136.019 75.8843 136.025 75.4426 136.025 74.9996C136.025 74.4728 136.019 73.9477 136.006 73.4242C135.899 69.2371 135.371 65.1544 134.462 61.2177C134.349 60.7258 134.229 60.2361 134.104 59.7486C133.58 57.7111 132.95 55.7158 132.228 53.7668C131.393 51.5185 130.432 49.3317 129.349 47.2174C129.124 46.7789 128.895 46.3434 128.66 45.9111C126.139 41.2719 123.033 36.9987 119.443 33.1842C116.306 29.8522 112.8 26.871 108.988 24.3098Z" fill="#AC6826"/>
<path d="M115.698 14.9058C119.49 17.4788 123.027 20.4018 126.261 23.6284L119.443 33.1843C116.306 29.8523 112.8 26.8711 108.988 24.3099L115.698 14.9058Z" fill="#F0A63E"/>
<path d="M8.97193 105.153C4.77125 95.9688 2.42676 85.7585 2.42676 74.9991C2.42676 34.9185 34.919 2.42627 74.9996 2.42627C77.366 2.42627 79.7046 2.54349 82.0128 2.76529L74.0079 13.9868C73.5935 13.9935 73.1803 14.0042 72.7681 14.0188C72.7024 14.0211 72.6369 14.0236 72.5716 14.0264C72.2079 14.0399 71.8452 14.0568 71.4837 14.077C71.3117 14.0871 71.1402 14.0981 70.9693 14.1099C70.6961 14.1276 70.4228 14.1445 70.1513 14.1656C69.6863 14.2016 69.2227 14.2426 68.7606 14.2887C66.7087 14.497 64.6873 14.8074 62.7012 15.2138C60.7151 15.6203 58.7636 16.123 56.8526 16.7175C55.8974 17.0149 54.9523 17.3349 54.0173 17.6772C51.6804 18.5324 49.411 19.5267 47.2183 20.65C46.7797 20.8749 46.3443 21.1046 45.9119 21.339C45.0467 21.8091 44.1946 22.299 43.3558 22.809C42.2696 23.4693 41.2078 24.1659 40.1671 24.8903C39.6012 25.2842 39.0396 25.6848 38.4872 26.0972C31.4385 31.3689 25.5672 38.1291 21.3404 45.9106C21.1054 46.343 20.8754 46.7784 20.6505 47.2169C19.8848 48.7122 19.1831 50.2445 18.5405 51.8081C18.3122 52.3636 18.0918 52.923 17.8793 53.4864C17.111 55.5247 16.4456 57.6128 15.8958 59.7482C15.7704 60.2356 15.6509 60.7253 15.5373 61.2173C14.6282 65.154 14.1003 69.2366 13.9949 73.4238C13.9814 73.9472 13.9746 74.4723 13.9746 74.9991C13.9752 75.4416 13.9808 75.8832 13.9915 76.324C14.0016 76.7423 14.0154 77.1601 14.0328 77.5772C14.0345 77.5463 14.0362 77.5157 14.0379 77.4853C14.2673 83.2057 15.2751 88.7253 16.9744 93.9347L8.97193 105.153Z" fill="#F0A63E"/>
<path d="M43.1013 140.2C38.974 138.176 35.066 135.775 31.4253 133.037L38.1349 123.631C39.1902 124.432 40.2714 125.199 41.3784 125.931C44.0822 127.719 46.9335 129.301 49.9155 130.647L43.1013 140.2Z" fill="#F0A63E"/>
<path d="M75.0001 147.573C71.8586 147.573 68.7636 147.372 65.7275 146.985L73.5596 136.006C74.0381 136.018 74.5182 136.024 75.0001 136.025C76.1757 136.025 77.3429 135.988 78.5025 135.923C109.725 134.155 134.666 108.918 135.967 77.5729C135.967 77.5746 135.967 77.5763 135.967 77.578C135.984 77.1608 135.998 76.7431 136.008 76.3248C136.019 75.8846 136.025 75.4429 136.025 74.9999C136.025 74.4731 136.019 73.948 136.006 73.4245C135.899 69.2373 135.371 65.1547 134.462 61.218C134.349 60.7261 134.229 60.2364 134.104 59.7489C133.58 57.7114 132.95 55.7161 132.228 53.7671L140.05 42.8003C144.862 52.5038 147.573 63.4343 147.573 74.9999C147.573 115.081 115.081 147.573 75.0001 147.573Z" fill="#F0A63E"/>
<path d="M98.0133 45.0597C98.0335 44.509 98.0099 43.949 97.9365 43.3882C97.8395 44.1067 97.6633 44.8008 97.4019 45.4468C97.5975 45.3085 97.8033 45.1811 98.0133 45.0597Z" fill="#AC6826"/>
<g filter="url(#filter0_d_131_5964)">
<path d="M38.2652 92.5678C34.0832 92.5678 30.7375 91.7314 28.2283 90.0586C25.7512 88.3858 24.5127 85.9409 24.5127 82.7239C24.5127 82.4022 24.5449 81.9197 24.6092 81.2763H35.9973C35.9008 82.2735 36.0455 83.0134 36.4316 83.496C36.8498 83.9785 37.5253 84.2198 38.4582 84.2198C39.0373 84.2198 39.5198 84.075 39.9059 83.7855C40.2919 83.496 40.4849 83.0778 40.4849 82.5309C40.4849 81.7588 40.0989 81.1154 39.3268 80.6007C38.5869 80.086 37.3806 79.4748 35.7077 78.767C33.8741 77.995 32.3621 77.2551 31.1718 76.5473C30.0137 75.8396 29.0004 74.8745 28.1318 73.6521C27.2632 72.4296 26.8289 70.9016 26.8289 69.0679C26.8289 66.6552 27.424 64.5802 28.6143 62.8431C29.8368 61.0737 31.5257 59.7387 33.681 58.8379C35.8364 57.9372 38.2974 57.4868 41.064 57.4868C43.541 57.4868 45.7447 57.8729 47.6748 58.6449C49.6372 59.417 51.1653 60.5429 52.259 62.0227C53.385 63.4704 53.9479 65.1914 53.9479 67.186C53.9479 67.4433 53.9158 67.8937 53.8514 68.5371H42.3186C42.3829 68.1511 42.4151 67.8937 42.4151 67.765C42.4151 67.1538 42.2382 66.6873 41.8843 66.3656C41.5304 66.0118 41.0479 65.8348 40.4367 65.8348C39.8898 65.8348 39.4394 65.9957 39.0855 66.3174C38.7317 66.6391 38.5547 67.0573 38.5547 67.572C38.5547 68.2797 38.9247 68.907 39.6646 69.4539C40.4045 69.9686 41.5787 70.612 43.1872 71.3841C45.0209 72.2527 46.5328 73.073 47.7231 73.8451C48.9455 74.6172 49.9911 75.6466 50.8596 76.9334C51.7282 78.188 52.1625 79.7321 52.1625 81.5658C52.1625 83.6568 51.5995 85.5388 50.4736 87.2116C49.3798 88.8844 47.7874 90.2034 45.6964 91.1684C43.6054 92.1014 41.1283 92.5678 38.2652 92.5678Z" fill="#EA953C"/>
<path d="M86.4522 69.7917C86.0662 71.9471 85.2298 73.9094 83.943 75.6788C82.6562 77.4159 80.9351 78.7992 78.7798 79.8286C76.6566 80.8581 74.2117 81.3728 71.4451 81.3728H67.1987L65.2685 92.23H54.556L60.5878 58.0659H75.5467C79.1819 58.0659 81.9485 58.8862 83.8465 60.5268C85.7445 62.1675 86.6935 64.4194 86.6935 67.2825C86.6935 67.9902 86.6131 68.8266 86.4522 69.7917ZM71.7346 72.9283C73.9221 72.9283 75.2089 71.8827 75.595 69.7917C75.6593 69.4057 75.6915 69.1322 75.6915 68.9714C75.6915 67.4272 74.7425 66.6552 72.8445 66.6552H69.8044L68.6946 72.9283H71.7346Z" fill="#EA953C"/>
<path d="M111.372 75.341L120.347 92.23H107.656L102.975 83.3512L96.1714 92.23H83.963L98.2945 74.6172L89.5122 58.0659H102.203L106.739 66.6069L113.253 58.0659H125.462L111.372 75.341Z" fill="#EA953C"/>
</g>
<path d="M106.322 66.9556L112.837 58.4146H125.045L110.955 75.6899L113.462 80.4087L106.219 90.6421L102.559 83.6997L95.7549 92.5786H83.5459L97.8779 74.9653L94.3525 68.3228L101.41 58.4146H101.786L106.322 66.9556Z" fill="#E8C643"/>
<path d="M43.4946 57.6577C44.9966 57.8319 46.3814 58.1706 47.6479 58.6772C49.6101 59.4493 51.1382 60.5755 52.2319 62.0552C53.3577 63.5028 53.9204 65.2239 53.9204 67.2183C53.9204 67.4756 53.888 67.9258 53.8237 68.5688H42.2915C42.3558 68.1832 42.3882 67.9261 42.3882 67.7974C42.3882 67.1862 42.2108 66.7196 41.8569 66.3979C41.5031 66.0441 41.0208 65.8667 40.4097 65.8667C39.8628 65.8667 39.412 66.0275 39.0581 66.3491C38.7043 66.6708 38.5279 67.0894 38.5278 67.604C38.5278 68.3117 38.8974 68.939 39.6372 69.4858C40.3771 70.0005 41.5512 70.6445 43.1597 71.4165C44.9933 72.2851 46.5055 73.1054 47.6958 73.8774C48.9182 74.6495 49.964 75.6786 50.8325 76.9653C51.7011 78.2199 52.1353 79.7645 52.1353 81.5981C52.1352 83.689 51.5726 85.5709 50.4468 87.2437C49.353 88.9164 47.7604 90.2356 45.6694 91.2007C43.5784 92.1336 41.1009 92.6001 38.2378 92.6001C34.0558 92.6001 30.7099 91.7631 28.2007 90.0903C25.934 88.5594 24.7055 86.3821 24.5132 83.5581L26.1616 81.3081H35.9702C35.8737 82.3051 36.018 83.0453 36.4038 83.5278C36.822 84.0104 37.4982 84.2515 38.4312 84.2515C39.01 84.2514 39.4925 84.1073 39.8784 83.8179C40.2645 83.5283 40.4575 83.1099 40.4575 82.563C40.4575 81.791 40.0713 81.148 39.2993 80.6333C38.5594 80.1186 37.353 79.507 35.6802 78.7993C33.8468 78.0274 32.3352 77.2872 31.145 76.5796C30.7981 76.3676 30.4659 76.1297 30.145 75.8716L43.4946 57.6577ZM75.519 58.0981C78.9679 58.0981 81.6338 58.8382 83.519 60.3149L68.4546 81.4048H67.1714L66.7456 83.7954L60.6987 92.2622H54.5288L60.561 58.0981H75.519ZM68.6675 72.9604H71.7075C73.8949 72.9604 75.1818 71.9147 75.5679 69.8237C75.6322 69.4378 75.6646 69.1642 75.6646 69.0034C75.6645 67.4593 74.7149 66.687 72.8169 66.687H69.7769L68.6675 72.9604Z" fill="#E8C643"/>
<defs>
<filter id="filter0_d_131_5964" x="24.5127" y="57.4868" width="102.902" height="37.0337" filterUnits="userSpaceOnUse" color-interpolation-filters="sRGB">
<feFlood flood-opacity="0" result="BackgroundImageFix"/>
<feColorMatrix in="SourceAlpha" type="matrix" values="0 0 0 0 0 0 0 0 0 0 0 0 0 0 0 0 0 0 127 0" result="hardAlpha"/>
<feOffset dx="1.95263" dy="1.95263"/>
<feComposite in2="hardAlpha" operator="out"/>
<feColorMatrix type="matrix" values="0 0 0 0 0.67451 0 0 0 0 0.407843 0 0 0 0 0.14902 0 0 0 1 0"/>
<feBlend mode="normal" in2="BackgroundImageFix" result="effect1_dropShadow_131_5964"/>
<feBlend mode="normal" in="SourceGraphic" in2="effect1_dropShadow_131_5964" result="shape"/>
</filter>
</defs>
</svg>
