<svg width="150" height="150" viewBox="0 0 150 150" fill="none" xmlns="http://www.w3.org/2000/svg">
<path d="M75 0C33.5785 0 0 33.5785 0 75C0 116.422 33.5785 150 75 150C116.422 150 150 116.422 150 75C150 33.5785 116.422 0 75 0Z" fill="#F0A63E"/>
<path fill-rule="evenodd" clip-rule="evenodd" d="M75 0C33.5785 0 0 33.5785 0 75C0 116.422 33.5785 150 75 150C116.422 150 150 116.422 150 75C150 33.5785 116.422 0 75 0Z" fill="#F4C74B"/>
<path d="M136.001 73.4198C135.895 69.2327 135.367 65.15 134.458 61.2133C134.344 60.7214 134.225 60.2317 134.1 59.7442C133.576 57.7067 132.946 55.7114 132.223 53.7624C131.388 51.5141 130.428 49.3273 129.345 47.213C129.12 46.7745 128.89 46.339 128.656 45.9067C126.135 41.2675 123.028 36.9943 119.439 33.1798C116.302 29.8478 112.796 26.8666 108.984 24.3054C107.401 23.2428 105.768 22.2501 104.084 21.3351C103.652 21.1007 103.216 20.871 102.778 20.6461C94.4448 16.378 85.0011 13.9702 74.9957 13.9702C74.9918 13.9702 74.9881 13.9702 74.9847 13.9702C74.6567 13.9702 74.3303 13.9778 74.0039 13.9829C73.5896 13.9896 73.1763 14.0003 72.7642 14.0149C72.6984 14.0172 72.6329 14.0197 72.5677 14.0225C72.204 14.036 71.8413 14.0529 71.4798 14.0731C71.3078 14.0832 71.1363 14.0942 70.9654 14.106C70.6921 14.1237 70.4189 14.1406 70.1473 14.1617C69.6824 14.1976 69.2188 14.2387 68.7567 14.2848C66.7048 14.4931 64.6833 14.8034 62.6973 15.2099C60.7112 15.6164 58.7597 16.119 56.8487 16.7136C55.8935 17.011 54.9484 17.3309 54.0134 17.6733C51.6765 18.5285 49.407 19.5228 47.2144 20.6461C46.7758 20.871 46.3404 21.1007 45.908 21.3351C45.0428 21.8051 44.1907 22.2951 43.3519 22.8051C42.2656 23.4654 41.2039 24.162 40.1632 24.8864C39.5973 25.2803 39.0356 25.6808 38.4833 26.0932C31.4346 31.365 25.5633 38.1252 21.3364 45.9067C21.1014 46.339 20.8715 46.7745 20.6466 47.213C19.8808 48.7083 19.1792 50.2406 18.5366 51.8042C18.3083 52.3597 18.0879 52.9191 17.8754 53.4824C17.1071 55.5208 16.4417 57.6089 15.8918 59.7442C15.7665 60.2317 15.647 60.7214 15.5334 61.2133C14.6243 65.15 14.0964 69.2327 13.9909 73.4198C13.9775 73.9433 13.9707 74.4684 13.9707 74.9952C13.9713 75.4377 13.9769 75.8793 13.9876 76.3201C13.9977 76.7384 14.0115 77.1561 14.0289 77.5733C14.0306 77.5424 14.0323 77.5117 14.034 77.4814C14.2633 83.2018 15.2711 88.7214 16.9705 93.9307C17.4692 95.4611 18.0255 96.9634 18.6394 98.4376C22.8165 108.469 29.5944 117.145 38.1307 123.626C39.186 124.427 40.2672 125.194 41.3742 125.926C44.078 127.714 46.9293 129.296 49.9114 130.642C51.1485 131.201 52.4085 131.717 53.6878 132.194C59.8957 134.507 66.58 135.841 73.5553 136.002C74.0337 136.013 74.5139 136.02 74.9957 136.02C76.1713 136.02 77.3385 135.983 78.4981 135.918C109.721 134.151 134.662 108.914 135.963 77.5682C135.963 77.5699 135.963 77.5716 135.963 77.5733C135.98 77.1561 135.994 76.7384 136.004 76.3201C136.015 75.8799 136.021 75.4383 136.021 74.9952C136.021 74.4684 136.014 73.9433 136.001 73.4198Z" fill="#D88C33"/>
<path d="M71.993 18.7773L16.9229 93.919L18.0314 96.8773C22.0389 107.572 29.1027 116.852 38.3437 123.562L107.413 26.8734L89.1972 18.7773H71.993Z" fill="#EA953C"/>
<path d="M119.388 33.4097L49.981 130.858C55.9865 133.075 62.165 134.792 68.4533 135.991L73.5945 136.972L132.544 53.692L126.388 43.3611L119.388 33.4097Z" fill="#EA953C"/>
<path d="M108.988 24.3098C107.405 23.2471 105.771 22.2545 104.088 21.3395C103.656 21.1051 103.22 20.8754 102.782 20.6505C94.4487 16.3823 85.005 13.9746 74.9996 13.9746C74.9957 13.9746 74.992 13.9746 74.9886 13.9746C74.6606 13.9746 74.3342 13.9822 74.0078 13.9873C73.5935 13.994 73.1802 14.0047 72.7681 14.0193C72.7023 14.0216 72.6366 14.0241 72.5708 14.0269C72.2076 14.0404 71.8452 14.0573 71.4837 14.0775C71.3117 14.0876 71.1402 14.0986 70.9693 14.1104C70.696 14.1281 70.4228 14.145 70.1512 14.166C69.6863 14.202 69.2227 14.2431 68.7606 14.2892C66.7087 14.4975 64.6872 14.8078 62.7012 15.2143C60.7151 15.6208 58.7636 16.1234 56.8526 16.718C55.8974 17.0154 54.9523 17.3353 54.0173 17.6777C51.6804 18.5329 49.411 19.5272 47.2183 20.6505C46.7797 20.8754 46.3443 21.1051 45.9119 21.3395C45.0467 21.8095 44.1946 22.2995 43.3558 22.8095C42.2695 23.4698 41.2078 24.1664 40.1671 24.8908C39.6012 25.2847 39.0395 25.6852 38.4872 26.0976C31.4385 31.3694 25.5672 38.1296 21.3404 45.9111C21.1053 46.3434 20.8754 46.7789 20.6505 47.2174C19.8847 48.7127 19.1831 50.245 18.5405 51.8086C18.3122 52.3641 18.0918 52.9235 17.8793 53.4868C17.111 55.5252 16.4456 57.6133 15.8957 59.7486C15.7704 60.2361 15.6509 60.7258 15.5373 61.2177C14.6282 65.1544 14.1003 69.2371 13.9949 73.4242C13.9814 73.9477 13.9746 74.4728 13.9746 74.9996C13.9752 75.4421 13.9808 75.8837 13.9915 76.3245C14.0016 76.7428 14.0154 77.1605 14.0328 77.5777C14.0345 77.5468 14.0362 77.5161 14.0379 77.4858C15.4361 45.0222 42.192 19.1308 74.9996 19.1308C75.0727 19.1319 75.1461 19.133 75.2197 19.1342C88.0697 19.1789 99.9827 23.1965 109.797 30.0225C113.571 32.6479 117.035 35.6873 120.123 39.0767C125.6 45.0914 129.893 52.2049 132.629 60.048C134.555 65.5711 135.712 71.4551 135.966 77.5727C135.966 77.5743 135.966 77.576 135.966 77.5777C135.984 77.1605 135.998 76.7428 136.008 76.3245C136.019 75.8843 136.025 75.4426 136.025 74.9996C136.025 74.4728 136.018 73.9477 136.005 73.4242C135.899 69.2371 135.371 65.1544 134.462 61.2177C134.348 60.7258 134.229 60.2361 134.103 59.7486C133.58 57.7111 132.95 55.7158 132.227 53.7668C131.392 51.5185 130.432 49.3317 129.349 47.2174C129.124 46.7789 128.894 46.3434 128.66 45.9111C126.139 41.2719 123.032 36.9987 119.443 33.1842C116.306 29.8522 112.8 26.871 108.988 24.3098Z" fill="#AC6826"/>
<path d="M115.698 14.9058C119.491 17.4788 123.027 20.4018 126.261 23.6284L119.444 33.1843C116.306 29.8523 112.801 26.8711 108.989 24.3099L115.698 14.9058Z" fill="#F0A63E"/>
<path d="M8.97242 105.153C4.77174 95.9688 2.42725 85.7585 2.42725 74.9991C2.42725 34.9185 34.9195 2.42627 75.0001 2.42627C77.3665 2.42627 79.7051 2.54349 82.0133 2.76529L74.0083 13.9868C73.594 13.9935 73.1807 14.0042 72.7686 14.0188C72.7028 14.0211 72.6374 14.0236 72.5721 14.0264C72.2084 14.0399 71.8457 14.0568 71.4842 14.077C71.3122 14.0871 71.1407 14.0981 70.9698 14.1099C70.6965 14.1276 70.4233 14.1445 70.1517 14.1656C69.6868 14.2016 69.2232 14.2426 68.7611 14.2887C66.7092 14.497 64.6877 14.8074 62.7017 15.2138C60.7156 15.6203 58.7641 16.123 56.8531 16.7175C55.8979 17.0149 54.9528 17.3349 54.0178 17.6772C51.6809 18.5324 49.4115 19.5267 47.2188 20.65C46.7802 20.8749 46.3448 21.1046 45.9124 21.339C45.0472 21.8091 44.1951 22.299 43.3563 22.809C42.27 23.4693 41.2083 24.1659 40.1676 24.8903C39.6017 25.2842 39.0401 25.6848 38.4877 26.0972C31.439 31.3689 25.5677 38.1291 21.3409 45.9106C21.1058 46.343 20.8759 46.7784 20.651 47.2169C19.8852 48.7122 19.1836 50.2445 18.541 51.8081C18.3127 52.3636 18.0923 52.923 17.8798 53.4864C17.1115 55.5247 16.4461 57.6128 15.8962 59.7482C15.7709 60.2356 15.6514 60.7253 15.5378 61.2173C14.6287 65.154 14.1008 69.2366 13.9954 73.4238C13.9819 73.9472 13.9751 74.4723 13.9751 74.9991C13.9757 75.4416 13.9813 75.8832 13.992 76.324C14.0021 76.7423 14.0159 77.1601 14.0333 77.5772C14.035 77.5463 14.0367 77.5157 14.0384 77.4853C14.2678 83.2057 15.2755 88.7253 16.9749 93.9347L8.97242 105.153Z" fill="#F0A63E"/>
<path d="M43.1013 140.2C38.974 138.176 35.066 135.775 31.4253 133.037L38.1349 123.631C39.1902 124.432 40.2714 125.199 41.3784 125.931C44.0822 127.719 46.9335 129.301 49.9155 130.647L43.1013 140.2Z" fill="#F0A63E"/>
<path d="M74.9996 147.573C71.8581 147.573 68.7631 147.372 65.7271 146.985L73.5592 136.006C74.0376 136.018 74.5178 136.024 74.9996 136.025C76.1752 136.025 77.3424 135.988 78.502 135.923C109.725 134.155 134.666 108.918 135.966 77.5729C135.966 77.5746 135.966 77.5763 135.966 77.578C135.984 77.1608 135.998 76.7431 136.008 76.3248C136.019 75.8846 136.025 75.4429 136.025 74.9999C136.025 74.4731 136.018 73.948 136.005 73.4245C135.899 69.2373 135.371 65.1547 134.462 61.218C134.348 60.7261 134.229 60.2364 134.103 59.7489C133.58 57.7114 132.95 55.7161 132.227 53.7671L140.05 42.8003C144.862 52.5038 147.572 63.4343 147.572 74.9999C147.572 115.081 115.08 147.573 74.9996 147.573Z" fill="#F0A63E"/>
<path d="M98.0143 45.0597C98.0345 44.509 98.0109 43.949 97.9375 43.3882C97.8405 44.1067 97.6643 44.8008 97.4028 45.4468C97.5985 45.3085 97.8043 45.1811 98.0143 45.0597Z" fill="#AC6826"/>
</svg>
