<svg width="17" height="16" viewBox="0 0 17 16" fill="none" xmlns="http://www.w3.org/2000/svg">
<path d="M7.71014 0.275879C6.45663 0.275879 5.2817 0.583887 4.44034 0.880694C4.35703 0.910042 4.27222 0.923995 4.18827 0.923995C3.97413 0.923995 3.76556 0.833552 3.60186 0.678811C3.42024 0.507141 3.17649 0.401367 2.90785 0.401367H1.63092C1.06908 0.401367 0.609375 0.861075 0.609375 1.42291V6.78604C0.609375 7.34791 1.06908 7.80758 1.63092 7.80758H2.90785C3.46972 7.80758 3.92939 7.34791 3.92939 6.78604C3.92939 6.30297 4.26406 5.86861 4.73996 5.78543C4.88065 5.76082 5.01904 5.75029 5.15368 5.75029C5.67778 5.75029 6.14629 5.9097 6.48323 6.01986C6.75686 6.10931 7.10133 6.13914 7.43964 6.13914C8.11653 6.13914 8.7691 6.01976 8.78161 6.01976C8.78183 6.01976 8.78183 6.0198 8.7817 6.01986C5.46054 7.55142 5.19528 12.9512 5.20677 14.9623C5.20921 15.3842 5.55056 15.7246 5.97251 15.7246H10.5865C10.9976 15.7246 11.3339 15.3988 11.35 14.988C11.5979 8.63812 14.9909 4.49576 16.0972 3.3077C16.32 3.06843 16.4433 2.75534 16.4433 2.42842C16.4433 2.42842 16.4433 1.68624 16.4433 1.67827C16.4433 1.32712 14.4002 0.401335 14.1449 0.401335C13.0524 0.401335 12.1963 0.609426 11.0471 0.609426C10.4725 0.609426 9.82469 0.55742 9.03713 0.401335C8.59246 0.313228 8.14655 0.275879 7.71014 0.275879Z" fill="#515262"/>
<path d="M7.729 1.25391C8.12678 1.25391 8.51064 1.29001 8.86988 1.36122C9.61193 1.50831 10.3051 1.57977 10.9891 1.57977C11.5995 1.57977 12.1209 1.52489 12.6252 1.47179C13.0663 1.42535 13.4843 1.38135 13.9394 1.37683C14.2452 1.47 15.0942 1.87232 15.4608 2.1192V2.5567C15.4608 2.67342 15.4169 2.78483 15.3373 2.87041C14.2659 4.0208 10.6146 8.24375 10.345 14.7198L6.28616 14.7221C6.28196 13.117 6.48077 8.21056 9.29455 6.91304C9.63581 6.75568 9.86329 6.16223 9.78274 5.79514C9.70219 5.42805 9.3823 5.08881 9.00651 5.08881C8.94132 5.08881 8.69956 5.01757 8.65447 5.0248C8.12899 5.10903 7.86681 5.12081 7.63033 5.12081C7.23838 5.12081 7.0781 5.11751 6.99025 5.08881L6.7626 5.03024C6.40739 4.91387 6.04462 4.76876 5.42204 4.76876C5.23805 4.76876 4.86155 4.77008 4.68595 4.80077C3.84328 4.94802 3.08574 5.30106 3.08574 6.17695C3.08574 6.28423 3.14469 6.81703 3.03741 6.81703H1.78992C1.68264 6.81703 1.59204 6.70028 1.59204 6.593V1.5744C1.59204 1.46712 1.68264 1.37651 1.78992 1.37651H3.03741C3.09771 1.37651 3.14053 1.40503 3.16585 1.42894C3.47843 1.72437 3.87707 1.88711 4.28833 1.88711C4.46307 1.88711 4.63548 1.85754 4.80075 1.79923C5.50596 1.55046 6.58642 1.25391 7.729 1.25391Z" fill="#FF6464"/>
<path d="M16.2856 1.1034C16.0457 0.936307 15.7385 0.770942 15.5231 0.661616C15.2293 0.512604 14.4117 0.125866 14.1591 0.125866C13.6049 0.125866 13.104 0.178609 12.6196 0.229591C11.6459 0.332133 10.639 0.438131 9.08815 0.130762C7.31355 -0.220995 5.52916 0.203188 4.34478 0.62097C4.15145 0.689171 3.93478 0.63422 3.76522 0.473943C3.52772 0.249466 3.21817 0.125866 2.89359 0.125866H1.61342C0.907535 0.125866 0.333252 0.700149 0.333252 1.40603V6.78273C0.333252 7.48862 0.907535 8.0629 1.61342 8.0629H2.89359C3.59947 8.0629 4.17375 7.48862 4.17375 6.78273C4.17375 6.41446 4.43196 6.09164 4.77441 6.03179C5.38306 5.92547 5.95005 6.11113 6.36399 6.24673L6.39849 6.25803C6.77275 6.38038 7.25335 6.40396 7.7106 6.38502C6.70371 7.20426 5.95907 8.49915 5.49008 10.2507C5.02494 11.988 4.93545 13.7821 4.9423 14.9812C4.9455 15.543 5.40473 16 5.96599 16H10.5916C11.1428 16 11.5913 15.5676 11.6129 15.0155C11.859 8.71236 15.2655 4.58501 16.3037 3.47014C16.5718 3.18223 16.7194 2.80724 16.7194 2.4141V1.66207C16.7194 1.48223 16.5897 1.31514 16.2856 1.1034ZM16.2073 2.4141C16.2073 2.67727 16.1085 2.92834 15.929 3.12107C15.3454 3.74778 14.213 5.09711 13.1863 7.09279C11.9107 9.57231 11.2092 12.2311 11.1012 14.9955C11.0905 15.2716 10.8666 15.4878 10.5917 15.4878H5.96599C5.68547 15.4878 5.45594 15.2592 5.45437 14.9782C5.44211 12.835 5.75236 7.69383 8.88957 6.24711C9.00574 6.19354 9.06466 6.06235 9.02738 5.93997C9.01368 5.89494 8.95754 5.76084 8.77752 5.76084C8.75694 5.76084 8.73476 5.7626 8.71082 5.76641C8.27349 5.83653 7.18819 5.97738 6.55762 5.77124L6.5234 5.76004C6.08437 5.61625 5.42089 5.39884 4.68624 5.52734C4.09256 5.63113 3.66169 6.15907 3.66169 6.78273C3.66169 7.20624 3.31713 7.55083 2.89359 7.55083H1.61342C1.18988 7.55083 0.845319 7.20624 0.845319 6.78273V1.40603C0.845319 0.982522 1.18988 0.637933 1.61342 0.637933H2.89359C3.08683 0.637933 3.27146 0.711862 3.41349 0.846088C3.72067 1.13643 4.14284 1.23523 4.51514 1.10388C5.63919 0.70735 7.32767 0.303841 8.98862 0.633036C10.6155 0.955478 11.6616 0.845352 12.6732 0.738842C13.1639 0.687187 13.6274 0.638381 14.1515 0.637933C14.246 0.652526 14.6777 0.811747 15.231 1.08794C15.8955 1.4196 16.1481 1.62933 16.2073 1.70185V2.4141Z" fill="#2D2B29"/>
<path d="M3.88089 2.16479C3.97873 2.179 4.07845 2.1862 4.17728 2.1862C4.40877 2.1862 4.63709 2.14706 4.85587 2.06989C5.54575 1.82653 6.60054 1.53648 7.70808 1.53648C8.08631 1.53648 8.45019 1.57057 8.78956 1.63784C9.58071 1.79466 10.3213 1.87089 11.0535 1.87089C11.1949 1.87089 11.3095 1.75625 11.3095 1.61486C11.3095 1.47346 11.1949 1.35883 11.0535 1.35883C10.355 1.35883 9.64708 1.28579 8.8891 1.13556C8.51702 1.06183 8.11965 1.02441 7.70805 1.02441C6.52805 1.02441 5.41309 1.33034 4.68551 1.58698C4.4513 1.66962 4.19956 1.69365 3.95447 1.65803C3.81448 1.63768 3.68461 1.73468 3.66432 1.87464C3.64397 2.01456 3.74094 2.1445 3.88089 2.16479Z" fill="#2D2B29"/>
<path d="M12.1105 1.82203C12.1179 1.82203 12.1252 1.82171 12.1326 1.82107C12.315 1.80548 12.4889 1.78778 12.6497 1.77098C12.7903 1.75632 12.8924 1.63039 12.8777 1.48973C12.863 1.3491 12.7372 1.24678 12.5965 1.2617C12.4382 1.27824 12.2671 1.29562 12.089 1.31089C11.9481 1.32292 11.8436 1.44694 11.8557 1.58782C11.8671 1.72128 11.979 1.82203 12.1105 1.82203Z" fill="#2D2B29"/>
<path d="M15.5743 1.85823C15.1705 1.60793 14.4428 1.26718 14.1301 1.16381C14.1031 1.15488 14.0747 1.15046 14.0461 1.15091C13.9124 1.1528 13.7769 1.15795 13.6317 1.16669C13.4906 1.17517 13.383 1.29646 13.3916 1.4376C13.4 1.57874 13.5215 1.68631 13.6625 1.67783C13.7836 1.67053 13.8974 1.66589 14.009 1.66368C14.2766 1.75944 14.8243 2.01605 15.1833 2.22155V2.41424C15.1833 2.41776 15.1821 2.42055 15.1796 2.42327C14.6855 2.95387 13.712 4.09526 12.7439 5.77804C11.5539 7.84654 10.7485 10.065 10.35 12.3719C10.3259 12.5113 10.4194 12.6437 10.5587 12.6678C10.5734 12.6704 10.5881 12.6716 10.6025 12.6716C10.7248 12.6716 10.833 12.5837 10.8545 12.4591C11.7676 7.1731 14.6826 3.70824 15.5543 2.77224C15.6453 2.6746 15.6953 2.54744 15.6953 2.41421V2.07583C15.6954 1.98724 15.6496 1.90493 15.5743 1.85823Z" fill="#2D2B29"/>
<path d="M10.4834 13.1855C10.3427 13.1689 10.2156 13.2693 10.1991 13.4097C10.1579 13.758 10.1258 14.1116 10.1032 14.4638H6.48235C6.50328 13.4313 6.61043 12.006 6.97406 10.6481C7.45844 8.83901 8.24722 7.67124 9.31846 7.17722C9.86026 6.92737 10.1606 6.32303 10.0327 5.74024C9.90484 5.15744 9.37895 4.73444 8.78229 4.73444C8.67899 4.73444 8.60381 4.74647 8.54857 4.75531C8.03916 4.83698 7.66288 4.8541 7.4369 4.8541C7.06655 4.8541 6.90464 4.80728 6.87597 4.79791L6.84207 4.78683C6.44989 4.65837 5.85724 4.46426 5.14512 4.46426C4.92992 4.46426 4.71626 4.48254 4.50996 4.5186C3.50858 4.6936 2.76064 5.51829 2.65135 6.52677H1.86949V1.66185L2.88626 1.6605C3.02766 1.66031 3.14213 1.54555 3.14194 1.40412C3.14175 1.26282 3.02718 1.14844 2.88591 1.14844C2.88578 1.14844 2.88565 1.14844 2.88556 1.14844L1.6131 1.15013C1.47184 1.15033 1.35742 1.2649 1.35742 1.40617V6.78287C1.35742 6.92426 1.47206 7.0389 1.61346 7.0389H2.89362C3.03502 7.0389 3.14966 6.92426 3.14966 6.78287C3.14966 5.90986 3.75882 5.16976 4.59813 5.02309C4.77537 4.99211 4.95943 4.97642 5.14512 4.97642C5.7755 4.97642 6.32143 5.15523 6.68285 5.27362L6.71678 5.28472C6.80994 5.31519 7.02738 5.36627 7.4369 5.36627C7.68148 5.36627 8.08694 5.34799 8.62983 5.26097C8.67607 5.25358 8.71973 5.24657 8.78229 5.24657C9.14029 5.24657 9.45582 5.5004 9.53257 5.85007C9.60931 6.19978 9.4291 6.56239 9.10403 6.7123C7.88803 7.27304 7.00501 8.55267 6.4794 10.5157C6.07048 12.0429 5.97489 13.6438 5.96666 14.718C5.96615 14.7862 5.99291 14.8519 6.04098 14.9003C6.08905 14.9487 6.15446 14.976 6.2227 14.976H10.3449C10.4811 14.976 10.5935 14.8692 10.6005 14.7332C10.6223 14.3122 10.6583 13.8871 10.7076 13.4698C10.7242 13.3294 10.6238 13.2021 10.4834 13.1855Z" fill="#2D2B29"/>
</svg>
