<svg width="79" height="19" viewBox="0 0 79 19" fill="none" xmlns="http://www.w3.org/2000/svg">
<path d="M12.196 5.42898C12.2188 4.6392 11.9773 4.03409 11.4716 3.61364C10.9716 3.19318 10.2528 2.98295 9.31534 2.98295C8.65625 2.98295 8.07386 3.08239 7.56818 3.28125C7.06818 3.47443 6.66477 3.74432 6.35795 4.09091C6.05114 4.43182 5.8608 4.82102 5.78693 5.25852C5.72443 5.61648 5.75568 5.92898 5.88068 6.19602C6.00568 6.46307 6.19602 6.69034 6.4517 6.87784C6.71307 7.06534 7.00852 7.22159 7.33807 7.34659C7.6733 7.47159 8.0142 7.5767 8.3608 7.66193L9.92898 8.07102C10.554 8.22443 11.1506 8.43182 11.7188 8.69318C12.2869 8.94886 12.7784 9.27841 13.1932 9.68182C13.6136 10.0795 13.9205 10.5597 14.1136 11.1222C14.3068 11.6847 14.3381 12.3437 14.2074 13.0994C14.0369 14.1222 13.625 15.0227 12.9716 15.8011C12.3239 16.5739 11.4716 17.179 10.4148 17.6165C9.36364 18.0483 8.1392 18.2642 6.74148 18.2642C5.3892 18.2642 4.24716 18.054 3.31534 17.6335C2.38352 17.2074 1.7017 16.5909 1.26989 15.7841C0.84375 14.9773 0.707386 13.9972 0.860795 12.8438H3.97159C3.90909 13.4517 4.00852 13.9574 4.26989 14.3608C4.53693 14.7642 4.92045 15.0653 5.42045 15.2642C5.92045 15.4631 6.5 15.5625 7.15909 15.5625C7.84659 15.5625 8.46875 15.4602 9.02557 15.2557C9.58239 15.0455 10.0369 14.7557 10.3892 14.3864C10.7472 14.0114 10.9659 13.5739 11.0455 13.0739C11.125 12.625 11.0597 12.25 10.8494 11.9489C10.6392 11.6477 10.3125 11.3977 9.86932 11.1989C9.43182 10.9943 8.90909 10.8125 8.30114 10.6534L6.40909 10.142C5.03977 9.76705 4 9.20455 3.28977 8.45455C2.58523 7.70455 2.33523 6.70455 2.53977 5.45454C2.71023 4.42045 3.1392 3.51989 3.8267 2.75284C4.5142 1.98011 5.375 1.38068 6.40909 0.954545C7.44318 0.522727 8.57386 0.306818 9.80114 0.306818C11.0398 0.306818 12.0881 0.522727 12.946 0.954545C13.8097 1.38636 14.4403 1.98864 14.8381 2.76136C15.2415 3.52841 15.375 4.41761 15.2386 5.42898H12.196ZM16.2166 18L19.1143 0.545454H25.6598C27.0007 0.545454 28.0859 0.795454 28.9155 1.29545C29.745 1.78977 30.3217 2.47443 30.6456 3.34943C30.9695 4.21875 31.0376 5.21023 30.8501 6.32386C30.6683 7.44318 30.2678 8.4375 29.6484 9.30682C29.0348 10.1761 28.2251 10.8608 27.2195 11.3608C26.2138 11.8551 25.0376 12.1023 23.6911 12.1023H19.353L19.7876 9.50284H23.6996C24.4837 9.50284 25.1484 9.36648 25.6939 9.09375C26.245 8.82102 26.6797 8.44602 26.9979 7.96875C27.3161 7.49148 27.5263 6.94318 27.6286 6.32386C27.7251 5.70455 27.6939 5.15909 27.5348 4.6875C27.3757 4.21591 27.0661 3.84943 26.6058 3.58807C26.1513 3.32102 25.5291 3.1875 24.7393 3.1875H21.8416L19.3786 18H16.2166ZM37.6982 0.545454L34.8004 18H31.6385L34.5362 0.545454H37.6982ZM55.4659 0.545454L52.5682 18H49.7557L43.5085 6.1108H43.3722L41.3864 18H38.2244L41.1222 0.545454H43.9517L50.1903 12.4432H50.3523L52.321 0.545454H55.4659ZM67.4212 0.545454L70.2166 6.9375H70.353L75.2621 0.545454H78.9524L72.1428 9.27273L76.1399 18H72.5348L69.7053 11.6506H69.5689L64.6257 18H60.9183L67.8984 9.27273L63.8842 0.545454H67.4212Z" fill="white"/>
</svg>
