<svg width="20" height="20" viewBox="0 0 20 20" fill="none" xmlns="http://www.w3.org/2000/svg">
<path fill-rule="evenodd" clip-rule="evenodd" d="M16.1602 12.0052C16.1602 11.5272 15.9703 11.0688 15.6323 10.7308C15.2943 10.3928 14.8359 10.2029 14.3579 10.2029H14.3559C13.8779 10.2029 13.4194 10.3928 13.0814 10.7308C12.7434 11.0688 12.5536 11.5272 12.5536 12.0052C12.5536 12.811 12.5536 13.8636 12.5536 14.6694C12.5536 15.1474 12.7434 15.6059 13.0814 15.9439C13.4194 16.2819 13.8779 16.4718 14.3559 16.4718H14.3579C14.8359 16.4718 15.2943 16.2819 15.6323 15.9439C15.9703 15.6059 16.1602 15.1474 16.1602 14.6694V12.0052ZM7.4555 12.0052C7.45552 11.5272 7.26562 11.0688 6.92762 10.7308C6.58963 10.3928 6.13122 10.2029 5.6532 10.2029H5.65118C5.17318 10.2029 4.71475 10.3928 4.37675 10.7308C4.03876 11.0688 3.84888 11.5272 3.84888 12.0052C3.84888 12.811 3.84888 13.8636 3.84888 14.6694C3.84888 15.1474 4.03876 15.6059 4.37675 15.9439C4.71475 16.2819 5.17318 16.4718 5.65118 16.4718H5.6532C6.13122 16.4718 6.58963 16.2819 6.92762 15.9439C7.26562 15.6059 7.45552 15.1474 7.4555 14.6694V12.0052ZM14.9909 12.0052V14.6694C14.9909 14.8373 14.9242 14.9983 14.8055 15.117C14.6868 15.2358 14.5258 15.3024 14.3579 15.3025C14.3578 15.3025 14.3559 15.3025 14.3559 15.3025C14.188 15.3024 14.027 15.2358 13.9083 15.117C13.7895 14.9983 13.7229 14.8373 13.7229 14.6694V12.0052C13.7229 11.8373 13.7895 11.6763 13.9083 11.5576C14.027 11.4389 14.188 11.3722 14.3558 11.3722C14.3559 11.3722 14.3579 11.3722 14.3579 11.3722C14.5258 11.3722 14.6868 11.4389 14.8055 11.5576C14.9242 11.6763 14.9909 11.8373 14.9909 12.0052ZM6.28618 12.0052V14.6694C6.28618 14.8373 6.2195 14.9983 6.10079 15.117C5.98209 15.2358 5.82109 15.3024 5.65324 15.3025C5.65316 15.3025 5.6512 15.3025 5.6512 15.3025C5.48328 15.3024 5.32229 15.2358 5.2036 15.117C5.08489 14.9983 5.01819 14.8373 5.01819 14.6694V12.0052C5.01819 11.8373 5.08489 11.6763 5.2036 11.5576C5.32229 11.4389 5.48328 11.3722 5.65116 11.3722C5.65123 11.3722 5.6532 11.3722 5.6532 11.3722C5.82109 11.3722 5.98209 11.4389 6.10079 11.5576C6.2195 11.6763 6.28618 11.8373 6.28618 12.0052Z" fill="white" fill-opacity="0.5"/>
<path fill-rule="evenodd" clip-rule="evenodd" d="M17.71 13.372V9.22846C17.71 5.46133 14.6562 2.40747 10.889 2.40747C10.3021 2.40747 9.707 2.40747 9.12008 2.40747C5.35294 2.40747 2.29907 5.46133 2.29907 9.22846C2.29907 11.4315 2.29907 13.372 2.29907 13.372C2.29907 13.6947 2.56104 13.9567 2.88373 13.9567C3.20641 13.9567 3.46839 13.6947 3.46839 13.372V9.2285C3.46841 6.10711 5.99875 3.57679 9.12008 3.57679C9.707 3.57679 10.3021 3.57679 10.889 3.57679C14.0104 3.57679 16.5407 6.10711 16.5407 9.22844C16.5407 9.2285 16.5407 13.372 16.5407 13.372C16.5407 13.6947 16.8027 13.9567 17.1254 13.9567C17.4481 13.9567 17.71 13.6947 17.71 13.372ZM8.26362 5.31772H11.3973C11.72 5.31772 11.982 5.05574 11.982 4.73306C11.982 4.41037 11.72 4.14841 11.3973 4.14841H8.26362C7.94092 4.14841 7.67896 4.41037 7.67896 4.73306C7.67896 5.05574 7.94092 5.31772 8.26362 5.31772Z" fill="white"/>
</svg>
