<svg width="32" height="32" viewBox="0 0 32 32" fill="none" xmlns="http://www.w3.org/2000/svg">
<rect x="0.5" y="0.5" width="31" height="31" rx="15.5" fill="white" fill-opacity="0.1"/>
<rect x="0.5" y="0.5" width="31" height="31" rx="15.5" stroke="white"/>
<path d="M16 7.25C13.9297 7.25 12.25 8.92969 12.25 11C12.25 13.0703 13.9297 14.75 16 14.75C18.0703 14.75 19.75 13.0703 19.75 11C19.75 8.92969 18.0703 7.25 16 7.25ZM14.125 16C11.0098 16 8.5 18.5098 8.5 21.625V22.25C8.5 23.6367 9.61328 24.75 11 24.75H21C22.3867 24.75 23.5 23.6367 23.5 22.25V21.625C23.5 18.5098 20.9902 16 17.875 16H14.125Z" fill="white"/>
</svg>
